<svg xmlns="http://www.w3.org/2000/svg" xmlns:xlink="http://www.w3.org/1999/xlink" id="processonSvg1000" viewBox="340.0138854980469 136.31448364257812 719.6253204345703 322.71675872802734" width="719.6253204345703" height="322.71675872802734"><defs id="ProcessOnDefs1001"><marker id="ProcessOnMarker1029" markerUnits="userSpaceOnUse" orient="auto" markerWidth="16.23606797749979" markerHeight="10.550836550532098" viewBox="-1.0 -1.3763819204711736 16.23606797749979 10.550836550532098" refX="-1.0" refY="3.8990363547948754"><path id="ProcessOnPath1030" d="M12.0 3.8990363547948754L0.0 7.798072709589751V0.0Z" stroke="#323232" stroke-width="2.0" fill="#323232" transform="matrix(1.0,0.0,0.0,1.0,0.0,0.0)"/></marker><marker id="ProcessOnMarker1033" markerUnits="userSpaceOnUse" orient="auto" markerWidth="16.23606797749979" markerHeight="10.550836550532098" viewBox="-1.0 -1.3763819204711736 16.23606797749979 10.550836550532098" refX="-1.0" refY="3.8990363547948754"><path id="ProcessOnPath1034" d="M12.0 3.8990363547948754L0.0 7.798072709589751V0.0Z" stroke="#323232" stroke-width="2.0" fill="#323232" transform="matrix(1.0,0.0,0.0,1.0,0.0,0.0)"/></marker><marker id="ProcessOnMarker1037" markerUnits="userSpaceOnUse" orient="auto" markerWidth="16.23606797749979" markerHeight="10.550836550532098" viewBox="-1.0 -1.3763819204711736 16.23606797749979 10.550836550532098" refX="-1.0" refY="3.8990363547948754"><path id="ProcessOnPath1038" d="M12.0 3.8990363547948754L0.0 7.798072709589751V0.0Z" stroke="#323232" stroke-width="2.0" fill="#323232" transform="matrix(1.0,0.0,0.0,1.0,0.0,0.0)"/></marker></defs><g id="ProcessOnG1002"><path id="ProcessOnPath1003" d="M340.0138854980469 136.31448364257812H1059.6392059326172V459.03124237060547H340.0138854980469V136.31448364257812Z" fill="none"/><g id="ProcessOnG1004"><g id="ProcessOnG1005" transform="matrix(1.0,0.0,0.0,1.0,360.0138854980469,163.03124237060547)" opacity="1.0"><path id="ProcessOnPath1006" d="M0.0 34.5Q126.5 -34.5 253.0 34.5L253.0 276.0L0.0 276.0L0.0 34.5Z" stroke="#323232" stroke-width="2.0" stroke-dasharray="none" opacity="1.0" fill="#ffffff"/><g id="ProcessOnG1007" transform="matrix(1.0,0.0,0.0,1.0,10.0,129.875)"><text id="ProcessOnText1008" fill="#000000" font-size="13" x="115.5" y="13.325" font-family="微软雅黑" font-weight="normal" font-style="normal" text-decoration="none" family="微软雅黑" text-anchor="middle" size="13">堆本体</text></g></g><g id="ProcessOnG1009" transform="matrix(1.0,0.0,0.0,1.0,622.0028533935547,197.03124237060547)" opacity="1.0"><path id="ProcessOnPath1010" d="M0.0 4.0Q0.0 0.0 4.0 0.0L35.597137451171875 0.0Q39.597137451171875 0.0 39.597137451171875 4.0L39.597137451171875 180.16875839233398Q39.597137451171875 184.16875839233398 35.597137451171875 184.16875839233398L4.0 184.16875839233398Q0.0 184.16875839233398 0.0 180.16875839233398Z" stroke="#323232" stroke-width="2.0" stroke-dasharray="none" opacity="1.0" fill="#ffffff"/><g id="ProcessOnG1011" transform="matrix(1.0,0.0,0.0,1.0,10.0,51.45937919616699)"><text id="ProcessOnText1012" fill="#000000" font-size="13" x="8.798568725585938" y="13.325" font-family="微软雅黑" font-weight="normal" font-style="normal" text-decoration="none" family="微软雅黑" text-anchor="middle" size="13">蒸</text><text id="ProcessOnText1013" fill="#000000" font-size="13" x="8.798568725585938" y="29.575" font-family="微软雅黑" font-weight="normal" font-style="normal" text-decoration="none" family="微软雅黑" text-anchor="middle" size="13">汽</text><text id="ProcessOnText1014" fill="#000000" font-size="13" x="8.798568725585938" y="45.825" font-family="微软雅黑" font-weight="normal" font-style="normal" text-decoration="none" family="微软雅黑" text-anchor="middle" size="13">发</text><text id="ProcessOnText1015" fill="#000000" font-size="13" x="8.798568725585938" y="62.075" font-family="微软雅黑" font-weight="normal" font-style="normal" text-decoration="none" family="微软雅黑" text-anchor="middle" size="13">生</text><text id="ProcessOnText1016" fill="#000000" font-size="13" x="8.798568725585938" y="78.325" font-family="微软雅黑" font-weight="normal" font-style="normal" text-decoration="none" family="微软雅黑" text-anchor="middle" size="13">器</text></g></g><g id="ProcessOnG1017" transform="matrix(1.0,0.0,0.0,1.0,944.5999908447266,313.5999984741211)" opacity="1.0"><path id="ProcessOnPath1018" d="M37.0 0.0L0.0 27.3L13.32 70.0L60.68 70.0L74.0 27.3Z" stroke="#323232" stroke-width="2.0" stroke-dasharray="none" opacity="1.0" fill="#ffffff"/></g><g id="ProcessOnG1019" transform="matrix(1.0,0.0,0.0,1.0,935.5999908447266,200.31562042236328)" opacity="1.0"><path id="ProcessOnPath1020" d="M0.0 15.333333333333334L15.333333333333334 0.0L76.66666666666667 0.0L92.0 15.333333333333334L92.0 166.2843780517578L0.0 166.2843780517578L0.0 15.333333333333334Z" stroke="#323232" stroke-width="2.0" stroke-dasharray="none" opacity="1.0" fill="#ffffff"/><g id="ProcessOnG1021" transform="matrix(1.0,0.0,0.0,1.0,10.0,75.0171890258789)"><text id="ProcessOnText1022" fill="#000000" font-size="13" x="35.0" y="13.325" font-family="微软雅黑" font-weight="normal" font-style="normal" text-decoration="none" family="微软雅黑" text-anchor="middle" size="13">空气散热器</text></g></g><g id="ProcessOnG1023" transform="matrix(1.0,0.0,0.0,1.0,733.5999908447266,193.5999984741211)" opacity="1.0"><path id="ProcessOnPath1024" d="M0.0 4.0Q0.0 0.0 4.0 0.0L96.0 0.0Q100.0 0.0 100.0 4.0L100.0 66.0Q100.0 70.0 96.0 70.0L4.0 70.0Q0.0 70.0 0.0 66.0Z" stroke="#323232" stroke-width="2.0" stroke-dasharray="none" opacity="1.0" fill="#ffffff"/><g id="ProcessOnG1025" transform="matrix(1.0,0.0,0.0,1.0,10.0,26.875)"><text id="ProcessOnText1026" fill="#000000" font-size="13" x="39.0" y="13.325" font-family="微软雅黑" font-weight="normal" font-style="normal" text-decoration="none" family="微软雅黑" text-anchor="middle" size="13">蒸汽轮机</text></g></g><g id="ProcessOnG1027"><path id="ProcessOnPath1028" d="M661.0 228.33333206176758L693.0 228.33333206176758L693.0 228.33333206176758L709.7639320225002 228.33333206176758" stroke="#323232" stroke-width="2.0" stroke-dasharray="none" fill="none" marker-end="url(#ProcessOnMarker1029)"/></g><g id="ProcessOnG1031"><path id="ProcessOnPath1032" d="M833.5999908447266 221.20000076293945L885.0923802409101 221.20000076293945L885.0923802409101 221.54862373393007L921.3487016595938 221.54862373393007" stroke="#323232" stroke-width="2.0" stroke-dasharray="none" fill="none" marker-end="url(#ProcessOnMarker1033)"/></g><g id="ProcessOnG1035"><path id="ProcessOnPath1036" d="M935.5999908447266 344.20000076293945L802.0999908447266 344.20000076293945L802.0999908447266 344.20000076293945L683.8360588222264 344.20000076293945" stroke="#323232" stroke-width="2.0" stroke-dasharray="none" fill="none" marker-end="url(#ProcessOnMarker1037)"/></g><g id="ProcessOnG1039" transform="matrix(1.0,0.0,0.0,1.0,763.5999908447266,344.1988639831543)" opacity="1.0"><path id="ProcessOnPath1040" d="M0.0 0.0L58.039215087890625 0.0L58.039215087890625 31.001136779785156L0.0 31.001136779785156Z" stroke="none" stroke-width="0.0" stroke-dasharray="none" opacity="1.0" fill="none"/><g id="ProcessOnG1041" transform="matrix(1.0,0.0,0.0,1.0,0.0,7.375568389892578)"><text id="hanlfHost:ai1" fill="#000000" font-size="13" x="28.019607543945312" y="13.325" font-family="微软雅黑" font-weight="normal" font-style="normal" text-decoration="none" family="微软雅黑" text-anchor="middle" size="13">32.5</text></g></g><g id="ProcessOnG1043" transform="matrix(1.0,0.0,0.0,1.0,717.5999908447266,344.1988639831543)" opacity="1.0"><path id="ProcessOnPath1044" d="M0.0 0.0L58.039215087890625 0.0L58.039215087890625 31.001136779785156L0.0 31.001136779785156Z" stroke="none" stroke-width="0.0" stroke-dasharray="none" opacity="1.0" fill="none"/><g id="ProcessOnG1045" transform="matrix(1.0,0.0,0.0,1.0,0.0,7.375568389892578)"><text id="ProcessOnText1046" fill="#000000" font-size="13" x="28.019607543945312" y="13.325" font-family="微软雅黑" font-weight="normal" font-style="normal" text-decoration="none" family="微软雅黑" text-anchor="middle" size="13">流量</text></g></g><g id="ProcessOnG1047" transform="matrix(1.0,0.0,0.0,1.0,981.5999908447266,169.31448364257812)" opacity="1.0"><path id="ProcessOnPath1048" d="M0.0 0.0L58.039215087890625 0.0L58.039215087890625 31.001136779785156L0.0 31.001136779785156Z" stroke="none" stroke-width="0.0" stroke-dasharray="none" opacity="1.0" fill="none"/><g id="ProcessOnG1049" transform="matrix(1.0,0.0,0.0,1.0,0.0,7.375568389892578)"><text id="ProcessOnText1050" fill="#000000" font-size="13" x="28.019607543945312" y="13.325" font-family="微软雅黑" font-weight="normal" font-style="normal" text-decoration="none" family="微软雅黑" text-anchor="middle" size="13">32.1</text></g></g><g id="ProcessOnG1051" transform="matrix(1.0,0.0,0.0,1.0,935.5999908447266,169.31448364257812)" opacity="1.0"><path id="ProcessOnPath1052" d="M0.0 0.0L58.039215087890625 0.0L58.039215087890625 31.001136779785156L0.0 31.001136779785156Z" stroke="none" stroke-width="0.0" stroke-dasharray="none" opacity="1.0" fill="none"/><g id="ProcessOnG1053" transform="matrix(1.0,0.0,0.0,1.0,0.0,7.375568389892578)"><text id="ProcessOnText1054" fill="#000000" font-size="13" x="28.019607543945312" y="13.325" font-family="微软雅黑" font-weight="normal" font-style="normal" text-decoration="none" family="微软雅黑" text-anchor="middle" size="13">温度</text></g></g><g id="ProcessOnG1055" transform="matrix(1.0,0.0,0.0,1.0,777.5803833007812,156.31448364257812)" opacity="1.0"><path id="ProcessOnPath1056" d="M0.0 0.0L58.039215087890625 0.0L58.039215087890625 31.001136779785156L0.0 31.001136779785156Z" stroke="none" stroke-width="0.0" stroke-dasharray="none" opacity="1.0" fill="none"/><g id="ProcessOnG1057" transform="matrix(1.0,0.0,0.0,1.0,0.0,7.375568389892578)"><text id="hanlfHost:ai2" fill="#000000" font-size="13" x="28.019607543945312" y="13.325" font-family="微软雅黑" font-weight="normal" font-style="normal" text-decoration="none" family="微软雅黑" text-anchor="middle" size="13">32.2</text></g></g><g id="ProcessOnG1059" transform="matrix(1.0,0.0,0.0,1.0,731.5803833007812,156.31448364257812)" opacity="1.0"><path id="ProcessOnPath1060" d="M0.0 0.0L58.039215087890625 0.0L58.039215087890625 31.001136779785156L0.0 31.001136779785156Z" stroke="none" stroke-width="0.0" stroke-dasharray="none" opacity="1.0" fill="none"/><g id="ProcessOnG1061" transform="matrix(1.0,0.0,0.0,1.0,0.0,7.375568389892578)"><text id="ProcessOnText1062" fill="#000000" font-size="13" x="28.019607543945312" y="13.325" font-family="微软雅黑" font-weight="normal" font-style="normal" text-decoration="none" family="微软雅黑" text-anchor="middle" size="13">功率</text></g></g></g></g></svg>